<svg width="15" height="16" viewBox="0 0 15 16" fill="none" xmlns="http://www.w3.org/2000/svg">
<g clip-path="url(#clip0_38_1082)">
<path d="M15 14.0624L10.7167 9.86568H10.425C11.342 8.72849 11.778 7.29388 11.6438 5.85477C11.5097 4.41566 10.8156 3.0806 9.70325 2.12221C8.59091 1.16381 7.14423 0.654364 5.65861 0.697888C4.17299 0.741412 2.76049 1.33463 1.70952 2.3564C0.658555 3.37817 0.0483935 4.75144 0.00362584 6.19579C-0.0411418 7.64014 0.482862 9.04663 1.46864 10.1281C2.45442 11.2095 3.82762 11.8843 5.30784 12.0148C6.78807 12.1452 8.26368 11.7213 9.43336 10.8298V11.1134L13.75 15.2777L15 14.0624ZM10 6.36568C10 7.44006 9.56104 8.47043 8.77964 9.23012C7.99824 9.98982 6.93843 10.4166 5.83336 10.4166C4.72829 10.4166 3.66848 9.98982 2.88708 9.23012C2.10568 8.47043 1.66669 7.44006 1.66669 6.36568C1.66669 5.29131 2.10568 4.26094 2.88708 3.50125C3.66848 2.74155 4.72829 2.31476 5.83336 2.31476C6.93843 2.31476 7.99824 2.74155 8.77964 3.50125C9.56104 4.26094 10 5.29131 10 6.36568Z" fill="#D12525"/>
</g>
<defs>
<clipPath id="clip0_38_1082">
<rect width="15" height="14.5833" fill="white" transform="translate(0 0.694336)"/>
</clipPath>
</defs>
</svg>
