<svg width="24" height="22" viewBox="0 0 24 22" fill="none" xmlns="http://www.w3.org/2000/svg">
<path d="M6.66699 4.88873C6.66699 4.56457 6.80747 4.2537 7.05752 4.02448C7.30757 3.79527 7.6467 3.6665 8.00033 3.6665H16.0003C16.3539 3.6665 16.6931 3.79527 16.9431 4.02448C17.1932 4.2537 17.3337 4.56457 17.3337 4.88873V6.11095H18.667C19.3742 6.11095 20.0525 6.36849 20.5526 6.82691C21.0527 7.28533 21.3337 7.90709 21.3337 8.55539V15.8887C21.3337 16.537 21.0527 17.1588 20.5526 17.6172C20.0525 18.0756 19.3742 18.3332 18.667 18.3332H5.33366C4.62641 18.3332 3.94814 18.0756 3.44804 17.6172C2.94794 17.1588 2.66699 16.537 2.66699 15.8887V8.55539C2.66699 7.21095 3.86699 6.11095 5.33366 6.11095H6.66699V4.88873ZM16.0003 4.88873H8.00033V6.11095H16.0003V4.88873Z" fill="#E93737"/>
</svg>
