<svg width="22" height="22" viewBox="0 0 22 22" fill="none" xmlns="http://www.w3.org/2000/svg">
<path opacity="0.4" d="M11.2933 1.22217C10.3212 1.22303 9.38918 1.6099 8.70221 2.29773L1.73554 9.26439C1.37133 9.62654 1.13044 10.0942 1.04707 10.601C0.963699 11.1078 1.04208 11.628 1.27109 12.0877C1.45723 11.6248 1.73588 11.2048 2.08998 10.8533L9.42332 3.51995C10.1103 2.83212 11.0423 2.44525 12.0144 2.44439H17.1111C17.4369 2.44205 17.7617 2.48315 18.0767 2.56662C17.8726 2.16164 17.5599 1.82141 17.1735 1.58398C16.7872 1.34655 16.3424 1.22128 15.8889 1.22217H11.2933Z" fill="#E93737"/>
<path d="M12.0141 3.6665C11.6915 3.66625 11.3721 3.72984 11.0742 3.8536C10.7764 3.97736 10.5059 4.15885 10.2785 4.38762L2.9452 11.7209C2.48992 12.1789 2.23438 12.7985 2.23438 13.4443C2.23438 14.0901 2.48992 14.7096 2.9452 15.1676L8.06631 20.2887C8.52431 20.744 9.14386 20.9996 9.78965 20.9996C10.4354 20.9996 11.055 20.744 11.513 20.2887L18.8463 12.9554C19.0743 12.7255 19.2544 12.4527 19.3761 12.1526C19.4978 11.8526 19.5587 11.5314 19.5552 11.2076V6.11095C19.5552 5.46264 19.2977 4.84089 18.8392 4.38247C18.3808 3.92404 17.7591 3.6665 17.1108 3.6665H12.0141ZM14.6663 10.9998C14.018 10.9998 13.3963 10.7423 12.9378 10.2839C12.4794 9.82545 12.2219 9.2037 12.2219 8.55539C12.2219 7.90709 12.4794 7.28533 12.9378 6.82691C13.3963 6.36849 14.018 6.11095 14.6663 6.11095C15.3146 6.11095 15.9364 6.36849 16.3948 6.82691C16.8532 7.28533 17.1108 7.90709 17.1108 8.55539C17.1108 9.2037 16.8532 9.82545 16.3948 10.2839C15.9364 10.7423 15.3146 10.9998 14.6663 10.9998Z" fill="#E93737"/>
</svg>
