<svg width="22" height="22" viewBox="0 0 22 22" fill="none" xmlns="http://www.w3.org/2000/svg">
<path d="M20.7782 17.111C20.7782 17.6488 20.2282 18.3332 19.556 18.3332H11.0004C10.6763 18.3332 10.3654 18.2045 10.1362 17.9752C9.90698 17.746 9.77821 17.4352 9.77821 17.111H2.44488C1.78488 17.111 1.22266 16.4266 1.22266 15.8888C1.22266 12.6743 4.88932 10.9999 4.88932 10.9999C4.88932 10.9999 5.17043 10.511 4.88932 9.77767C3.86266 9.01989 3.59377 9.05656 3.6671 6.111C3.74043 3.15322 5.34155 2.44434 6.72266 2.44434C8.10377 2.44434 9.70488 3.15322 9.77821 6.111C9.85155 9.05656 9.58266 9.01989 8.55599 9.77767C8.27488 10.4988 8.55599 10.9999 8.55599 10.9999C8.55599 10.9999 10.4504 11.8677 11.5138 13.5543C12.4671 12.6743 13.4449 12.2099 13.4449 12.2099C13.4449 12.2099 13.726 11.721 13.4449 10.9877C12.4182 10.2421 12.1493 10.2788 12.2227 7.321C12.296 4.37545 13.8971 3.65434 15.2782 3.65434C16.6593 3.65434 18.2604 4.37545 18.3338 7.321C18.3949 10.2788 18.1382 10.2421 17.1115 10.9877C16.8304 11.721 17.1115 12.2099 17.1115 12.2099C17.1115 12.2099 20.7782 13.8966 20.7782 17.0988V17.111Z" fill="#E93737"/>
</svg>
