<svg width="15" height="16" viewBox="0 0 15 16" fill="none" xmlns="http://www.w3.org/2000/svg">
<g clip-path="url(#clip0_38_600)">
<path d="M15.0003 14.0624L10.7169 9.86568H10.4253C11.3423 8.72849 11.7782 7.29388 11.6441 5.85477C11.5099 4.41566 10.8158 3.0806 9.70349 2.12221C8.59115 1.16381 7.14447 0.654364 5.65885 0.697888C4.17324 0.741412 2.76073 1.33463 1.70977 2.3564C0.6588 3.37817 0.0486376 4.75144 0.00386998 6.19579C-0.0408976 7.64014 0.483106 9.04663 1.46888 10.1281C2.45466 11.2095 3.82786 11.8843 5.30809 12.0148C6.78831 12.1452 8.26392 11.7213 9.4336 10.8298V11.1134L13.7503 15.2777L15.0003 14.0624ZM10.0003 6.36568C10.0003 7.44006 9.56128 8.47043 8.77988 9.23012C7.99848 9.98982 6.93867 10.4166 5.8336 10.4166C4.72853 10.4166 3.66873 9.98982 2.88732 9.23012C2.10592 8.47043 1.66694 7.44006 1.66694 6.36568C1.66694 5.29131 2.10592 4.26094 2.88732 3.50125C3.66873 2.74155 4.72853 2.31476 5.8336 2.31476C6.93867 2.31476 7.99848 2.74155 8.77988 3.50125C9.56128 4.26094 10.0003 5.29131 10.0003 6.36568Z" fill="#D12525"/>
</g>
<defs>
<clipPath id="clip0_38_600">
<rect width="15" height="14.5833" fill="white" transform="translate(0 0.694336)"/>
</clipPath>
</defs>
</svg>
