<svg width="18" height="18" viewBox="0 0 18 18" fill="none" xmlns="http://www.w3.org/2000/svg">
<path d="M9 4.50021C9.87891 4.50021 10.7344 4.61447 11.5664 4.84299C12.3984 5.0715 13.1953 5.38498 13.957 5.78342C14.7188 6.18185 15.4395 6.65939 16.1191 7.21603C16.7988 7.77268 17.4258 8.3674 18 9.00021C17.4258 9.64475 16.8018 10.2395 16.1279 10.7844C15.4541 11.3293 14.7334 11.8039 13.9658 12.2082C13.1982 12.6125 12.3984 12.9289 11.5664 13.1574C10.7344 13.386 9.87891 13.5002 9 13.5002C8.12109 13.5002 7.26562 13.386 6.43359 13.1574C5.60156 12.9289 4.80469 12.6154 4.04297 12.217C3.28125 11.8186 2.55762 11.344 1.87207 10.7932C1.18652 10.2424 0.5625 9.64475 0 9.00021C0.568359 8.36154 1.19238 7.76682 1.87207 7.21603C2.55176 6.66525 3.27246 6.19064 4.03418 5.79221C4.7959 5.39377 5.5957 5.07736 6.43359 4.84299C7.27148 4.60861 8.12695 4.49435 9 4.50021ZM12.375 9.00021C12.375 8.53732 12.2871 8.1008 12.1113 7.69064C11.9355 7.28049 11.6924 6.92307 11.3818 6.61838C11.0713 6.31369 10.7139 6.07346 10.3096 5.89768C9.90527 5.72189 9.46875 5.63107 9 5.62521C8.53711 5.62521 8.10059 5.7131 7.69043 5.88889C7.28027 6.06467 6.92285 6.30783 6.61816 6.61838C6.31348 6.92893 6.07324 7.28635 5.89746 7.69064C5.72168 8.09494 5.63086 8.53146 5.625 9.00021C5.625 9.46311 5.71289 9.89963 5.88867 10.3098C6.06445 10.7199 6.30762 11.0774 6.61816 11.3821C6.92871 11.6867 7.28613 11.927 7.69043 12.1028C8.09473 12.2785 8.53125 12.3694 9 12.3752C9.46289 12.3752 9.89941 12.2873 10.3096 12.1115C10.7197 11.9358 11.0771 11.6926 11.3818 11.3821C11.6865 11.0715 11.9268 10.7141 12.1025 10.3098C12.2783 9.90549 12.3691 9.46896 12.375 9.00021ZM1.55566 9.00021C2.10645 9.53342 2.69238 10.0197 3.31348 10.4592C3.93457 10.8987 4.59961 11.2707 5.30859 11.5754C5.04492 11.2004 4.8457 10.7932 4.71094 10.3537C4.57617 9.91428 4.50586 9.46311 4.5 9.00021C4.5 8.54318 4.56738 8.09494 4.70215 7.65549C4.83691 7.21603 5.03906 6.80588 5.30859 6.42502C4.59961 6.72385 3.93457 7.09299 3.31348 7.53244C2.69238 7.97189 2.10645 8.46115 1.55566 9.00021ZM12.6914 11.5754C13.4004 11.2766 14.0654 10.9074 14.6865 10.468C15.3076 10.0285 15.8936 9.53928 16.4443 9.00021C15.8936 8.46701 15.3076 7.98068 14.6865 7.54123C14.0654 7.10178 13.4004 6.72971 12.6914 6.42502C12.9551 6.80002 13.1543 7.20725 13.2891 7.6467C13.4238 8.08615 13.4941 8.53732 13.5 9.00021C13.5 9.45725 13.4326 9.90549 13.2979 10.3449C13.1631 10.7844 12.9609 11.1946 12.6914 11.5754ZM9 10.1252C8.8418 10.1252 8.69531 10.0959 8.56055 10.0373C8.42578 9.97873 8.30859 9.89963 8.20898 9.80002C8.10938 9.70041 8.02734 9.58029 7.96289 9.43967C7.89844 9.29904 7.86914 9.15256 7.875 9.00021C7.875 8.84201 7.9043 8.69553 7.96289 8.56076C8.02148 8.426 8.10059 8.30881 8.2002 8.2092C8.2998 8.10959 8.41992 8.02756 8.56055 7.9631C8.70117 7.89865 8.84766 7.86935 9 7.87521C9.1582 7.87521 9.30469 7.90451 9.43945 7.9631C9.57422 8.0217 9.69141 8.1008 9.79102 8.20041C9.89062 8.30002 9.97266 8.42014 10.0371 8.56076C10.1016 8.70139 10.1309 8.84787 10.125 9.00021C10.125 9.15842 10.0957 9.3049 10.0371 9.43967C9.97852 9.57443 9.89941 9.69162 9.7998 9.79123C9.7002 9.89084 9.58008 9.97287 9.43945 10.0373C9.29883 10.1018 9.15234 10.1311 9 10.1252Z" fill="#636B74"/>
</svg>
