<svg width="18" height="18" viewBox="0 0 18 18" fill="none" xmlns="http://www.w3.org/2000/svg">
<g clip-path="url(#clip0_66_743)">
<path d="M6.27029 0.591952C4.47181 1.21586 2.92081 2.40006 1.84509 3.97061C0.769378 5.54116 0.225656 7.41528 0.29379 9.31769C0.361924 11.2201 1.03832 13.0505 2.22364 14.5401C3.40895 16.0297 5.04069 17.0999 6.8792 17.5935C8.36972 17.9781 9.93134 17.995 11.4298 17.6427C12.7873 17.3378 14.0423 16.6856 15.072 15.7499C16.1437 14.7463 16.9216 13.4697 17.322 12.0571C17.7571 10.521 17.8346 8.90562 17.5484 7.33492H9.17842V10.807H14.0258C13.9289 11.3607 13.7213 11.8892 13.4154 12.3609C13.1095 12.8326 12.7116 13.2377 12.2455 13.552C11.6536 13.9436 10.9863 14.2071 10.2865 14.3254C9.58475 14.4559 8.8649 14.4559 8.16311 14.3254C7.45176 14.1785 6.77885 13.8849 6.18732 13.4634C5.23691 12.7906 4.52328 11.8348 4.14826 10.7324C3.76701 9.60936 3.76701 8.39188 4.14826 7.26883C4.41521 6.48163 4.8565 5.76489 5.4392 5.17211C6.10603 4.48128 6.95026 3.98748 7.87926 3.74487C8.80826 3.50226 9.78614 3.52023 10.7056 3.7968C11.4239 4.01719 12.0808 4.40244 12.6237 4.9218C13.1703 4.37805 13.7159 3.83289 14.2606 3.28633C14.5419 2.99242 14.8484 2.71258 15.1254 2.41164C14.2965 1.64034 13.3236 1.04013 12.2623 0.64539C10.3297 -0.0563432 8.21511 -0.0752016 6.27029 0.591952Z" fill="white"/>
<path d="M6.27004 0.592147C8.21469 -0.07546 10.3293 -0.057098 12.2621 0.644179C13.3235 1.0416 14.296 1.6447 15.1238 2.41887C14.8425 2.7198 14.5458 3.00105 14.2589 3.29355C13.7133 3.83824 13.1682 4.38105 12.6235 4.92199C12.0805 4.40263 11.4237 4.01738 10.7054 3.79699C9.78619 3.51945 8.80835 3.50045 7.8791 3.74207C6.94985 3.98368 6.1051 4.47658 5.43754 5.16668C4.85484 5.75946 4.41354 6.4762 4.1466 7.2634L1.23145 5.00637C2.27489 2.93716 4.08156 1.35437 6.27004 0.592147Z" fill="#E33629"/>
<path d="M0.458551 7.24229C0.615122 6.46571 0.875259 5.71368 1.23199 5.00635L4.14714 7.269C3.7659 8.39206 3.7659 9.60954 4.14714 10.7326C3.17589 11.4826 2.20418 12.2363 1.23199 12.9938C0.339231 11.2168 0.066956 9.19205 0.458551 7.24229Z" fill="#F8BD00"/>
<path d="M9.17836 7.3335H17.5484C17.8345 8.90419 17.7571 10.5196 17.322 12.0557C16.9215 13.4682 16.1436 14.7449 15.072 15.7485C14.1312 15.0144 13.1862 14.286 12.2454 13.5519C12.7118 13.2373 13.1099 12.8318 13.4158 12.3596C13.7217 11.8875 13.9292 11.3584 14.0257 10.8041H9.17836C9.17695 9.64818 9.17836 8.49084 9.17836 7.3335Z" fill="#587DBD"/>
<path d="M1.23047 12.9937C2.20266 12.2437 3.17437 11.4899 4.14562 10.7324C4.52139 11.8352 5.23604 12.791 6.1875 13.4634C6.78087 13.8829 7.45523 14.1741 8.1675 14.3184C8.8693 14.4489 9.58914 14.4489 10.2909 14.3184C10.9907 14.2001 11.658 13.9366 12.2498 13.5449C13.1906 14.279 14.1356 15.0074 15.0764 15.7415C14.0469 16.6777 12.7918 17.3304 11.4342 17.6357C9.93573 17.988 8.37411 17.9711 6.88359 17.5865C5.70474 17.2717 4.60361 16.7169 3.64922 15.9566C2.63915 15.1545 1.81411 14.1439 1.23047 12.9937Z" fill="#319F43"/>
</g>
<defs>
<clipPath id="clip0_66_743">
<rect width="18" height="18" fill="white"/>
</clipPath>
</defs>
</svg>
