<svg width="47" height="45" viewBox="0 0 47 45" fill="none" xmlns="http://www.w3.org/2000/svg">
<path d="M9.53101 5.60254L45.1104 39.2348L34.2448 39.2348L20.8227 26.8229L5.05695 12.0087L9.53101 5.60254Z" fill="#FAF7F7"/>
<path d="M41.202 30.7892C44.3367 27.052 45.7168 23.0281 45.3994 18.3181C45.0819 13.6081 43.3455 9.19999 39.733 5.84704C36.1204 2.49408 31.4705 0.388374 26.3498 0.051066C21.2292 -0.286242 16.5461 1.05324 12.4504 3.89843L17.9069 8.96482C20.4148 7.22262 23.7956 7.19938 26.9311 7.40592C30.0667 7.61247 31.8545 8.86031 34.0666 10.9134C36.2787 12.9665 37.2146 15.0055 37.6343 17.9284C38.054 20.8513 37.4244 23.1896 35.7455 25.7228L41.202 30.7892Z" fill="#FAF7F7"/>
<path d="M9.60688 5.80798C6.19808 9.01106 4.3718 12.414 3.69746 17.0298C3.02312 21.6456 3.90053 26.4899 6.62418 30.4316C9.34784 34.3733 13.4418 37.6385 18.3419 38.6395C23.2421 39.6405 23.6682 39.8407 29.6336 39.0399L22.1769 32.0332C20.8986 31.8328 20.8985 31.833 21.7508 32.0332C18.6519 31.1384 15.0374 29.0575 13.2888 26.5269C11.5402 23.9962 10.8179 20.9802 11.2508 18.0168C11.6838 15.0534 12.5245 12.8002 14.9331 10.8128L9.60688 5.80798Z" fill="#FAF7F7"/>
</svg>
