<svg width="19" height="18" viewBox="0 0 19 18" fill="none" xmlns="http://www.w3.org/2000/svg">
<path d="M18.0899 16.3691L12.9499 11.2829H12.5999C13.7003 9.90468 14.2235 8.16601 14.0625 6.4219C13.9015 4.67778 13.0686 3.05978 11.7338 1.89826C10.399 0.736739 8.66297 0.119318 6.88023 0.172067C5.09748 0.224815 3.40248 0.943754 2.14132 2.18208C0.880159 3.42041 0.147965 5.08473 0.0942436 6.8352C0.0405224 8.58566 0.669327 10.2903 1.85226 11.6009C3.03519 12.9115 4.68303 13.7294 6.45931 13.8874C8.23558 14.0455 10.0063 13.5318 11.4099 12.4513V12.795L16.5899 17.842L18.0899 16.3691ZM12.0899 7.0411C12.0899 8.34317 11.5631 9.59192 10.6255 10.5126C9.68777 11.4333 8.41601 11.9506 7.08992 11.9506C5.76384 11.9506 4.49207 11.4333 3.55439 10.5126C2.61671 9.59192 2.08992 8.34317 2.08992 7.0411C2.08992 5.73902 2.61671 4.49028 3.55439 3.56957C4.49207 2.64886 5.76384 2.13162 7.08992 2.13162C8.41601 2.13162 9.68777 2.64886 10.6255 3.56957C11.5631 4.49028 12.0899 5.73902 12.0899 7.0411Z" fill="#636B74"/>
</svg>
