<svg width="22" height="26" viewBox="0 0 22 26" fill="none" xmlns="http://www.w3.org/2000/svg">
<path d="M11 22.9696L4.4 25.7259C3.35238 26.1598 2.35714 26.0771 1.41429 25.4779C0.471429 24.8786 0 24.0298 0 22.9313V3.06261C0 2.22039 0.308 1.49966 0.924 0.900408C1.54 0.301157 2.27962 0.00102087 3.14286 0H18.8571C19.7214 0 20.4616 0.300136 21.0776 0.900408C21.6936 1.50068 22.001 2.22141 22 3.06261V22.9313C22 24.0287 21.5286 24.8776 20.5857 25.4779C19.6429 26.0781 18.6476 26.1608 17.6 25.7259L11 22.9696ZM11 19.6007L18.8571 22.893V3.06261H3.14286V22.893L11 19.6007ZM11 3.06261H3.14286H18.8571H11Z" fill="#990C0C"/>
</svg>
